<svg width="172" height="128" version="1.1" viewBox="-11 0 86 64" xml:space="preserve" xmlns="http://www.w3.org/2000/svg"><defs><filter id="filter2" x="-.116" y="-.151" width="1.23" height="1.3" color-interpolation-filters="sRGB"><feGaussianBlur stdDeviation="1.977412"/></filter></defs><g stroke-linecap="round" stroke-linejoin="round"><path d="m42.3 13.6-4.25 1.05-0.426 0.925h-11.3s-0.877-1.91-1.32-2.71c-1.13 0.196-2.25 0.439-3.35 0.727-0.18 0.0472 0.548 2.12-0.198 1.22-0.262-0.315-0.908-0.915-1.19-0.83-1.88 0.561-3.7 1.26-5.45 2.09-4.01 6.06-6.2 12-7.07 17.9-0.0411 0.279 3.61-0.328 3.35-0.223-1.26 0.51-3.49 1.33-3.51 1.46-0.368 3.15-0.368 6.29-0.077 9.41 0.9 0.672 1.79 1.29 2.68 1.86 0.262 0.167 0.708 0.252 0.816-0.0332 0.158-0.417 0.242 0.686 0.379 0.767 0.219 0.13 0.438 0.256 0.657 0.38 0.172 0.0971-0.169-0.875 0.0021-0.781 0.0836 0.0457 0.679 1.16 0.763 1.2 2.43 1.3 4.82 2.27 7.18 3.01 1.01-1.38 1.9-2.85 2.67-4.4-1.47-0.559-2.88-1.25-4.21-2.05 0.353-0.262 0.698-0.535 1.03-0.816 8.12 3.8 16.9 3.8 25 0 0.338 0.281 0.683 0.555 1.03 0.816-1.33 0.805-2.75 1.49-4.22 2.05 0.772 1.55 1.66 3.02 2.67 4.4 1.56-0.485 3.12-1.07 4.7-1.78 0.265-0.12-1.57-0.807-0.124-0.733 0.656 0.0336 1.22 0.204 1.66 0.0013 1.98-0.92 4.32-2.44 6.25-3.89 0.879-9.31 1.33-15.9-2.88-22.9-0.333-0.554-3.39-1.4-3.39-1.4s2.31-0.295 2.1-0.58zm-18.3 25.3c-2.29 0-4.17-1.91-4.17-4.24s1.84-4.24 4.17-4.24 4.21 1.91 4.17 4.24c0.0039 2.33-1.84 4.24-4.17 4.24zm16.9 1.08c-1.99 0-3.63-2.7-3.63-6 0-3.29 1.6-6 3.63-6s3.67 2.7 3.63 6c0 3.29-1.6 6-3.63 6z" fill="none" filter="url(#filter2)" stroke="#5865f2" stroke-width="2"/><path d="m42.3 13.6-4.25 1.05-0.426 0.925h-11.3s-0.877-1.91-1.32-2.71c-1.13 0.196-2.25 0.439-3.35 0.727-0.18 0.0472 0.548 2.12-0.198 1.22-0.262-0.315-0.908-0.915-1.19-0.83-1.88 0.561-3.7 1.26-5.45 2.09-4.01 6.06-6.2 12-7.07 17.9-0.0411 0.279 3.61-0.328 3.35-0.223-1.26 0.51-3.49 1.33-3.51 1.46-0.368 3.15-0.368 6.29-0.077 9.41 0.9 0.672 1.79 1.29 2.68 1.86 0.262 0.167 0.708 0.252 0.816-0.0332 0.158-0.417 0.242 0.686 0.379 0.767 0.219 0.13 0.438 0.256 0.657 0.38 0.172 0.0971-0.169-0.875 0.0021-0.781 0.0836 0.0457 0.679 1.16 0.763 1.2 2.43 1.3 4.82 2.27 7.18 3.01 1.01-1.38 1.9-2.85 2.67-4.4-1.47-0.559-2.88-1.25-4.21-2.05 0.353-0.262 0.698-0.535 1.03-0.816 8.12 3.8 16.9 3.8 25 0 0.338 0.281 0.683 0.555 1.03 0.816-1.33 0.805-2.75 1.49-4.22 2.05 0.772 1.55 1.66 3.02 2.67 4.4 1.56-0.485 3.12-1.07 4.7-1.78 0.265-0.12-1.57-0.807-0.124-0.733 0.656 0.0336 1.22 0.204 1.66 0.0013 1.98-0.92 4.32-2.44 6.25-3.89 0.879-9.31 1.33-15.9-2.88-22.9-0.333-0.554-3.39-1.4-3.39-1.4s2.31-0.295 2.1-0.58zm-18.3 25.3c-2.29 0-4.17-1.91-4.17-4.24s1.84-4.24 4.17-4.24 4.21 1.91 4.17 4.24c0.0039 2.33-1.84 4.24-4.17 4.24zm16.9 1.08c-1.99 0-3.63-2.7-3.63-6 0-3.29 1.6-6 3.63-6s3.67 2.7 3.63 6c0 3.29-1.6 6-3.63 6z" fill="#5865f2" fill-opacity=".25" stroke="#f5f6fe" stroke-width=".3" style="paint-order:stroke fill markers"/></g></svg>
