<svg width="172" height="128" version="1.1" viewBox="-11 0 86 64" xmlns="http://www.w3.org/2000/svg"><defs><filter id="filter1" x="-.122" y="-.127" width="1.24" height="1.25" color-interpolation-filters="sRGB"><feGaussianBlur stdDeviation="2.4672577"/></filter></defs><g stroke-linejoin="round"><g transform="matrix(.842 0 0 .842 5.05 5.13)" fill-opacity=".1" filter="url(#filter1)" stroke="#2185d0" stroke-width="1.78" style="mix-blend-mode:normal"><path d="m8.23 47.9c-7.29-11.7-4.96-27 5.5-36 10.5-9.01 25.9-9.06 36.4-0.112 10.5 8.94 12.9 24.2 5.72 36l-23.9-30.1z" fill="#2185d0" stroke-linecap="round"/><path d="m55.8 47.8c-3.01 4.87-7.44 8.71-12.7 11l-11.1-41.2z" fill="#7abaea" stroke-linecap="square"/></g><g transform="matrix(.842 0 0 .842 5.05 5.13)" stroke="#dbe5f7" stroke-width=".356" style="mix-blend-mode:normal"><path d="m8.23 47.9c-8.28-13.3-3.38-28.4 5.5-36 10.5-9.01 25.9-9.06 36.4-0.112 10.5 8.94 12.9 24.2 5.72 36l-23.9-30.1z" fill="#2185d0" fill-opacity=".25"/><path d="m55.8 47.8c-3.01 4.87-7.44 8.71-12.7 11l-11.1-41.2z" fill="none" stroke-linecap="square"/></g></g></svg>
