<svg width="384" height="256" version="1.1" viewBox="0 0 384 256" xml:space="preserve" xmlns="http://www.w3.org/2000/svg"><defs><filter id="filter6" x="-.133" y="-.19" width="1.27" height="1.38" color-interpolation-filters="sRGB"><feGaussianBlur stdDeviation="34.758421"/></filter></defs><g transform="matrix(1.26 0 0 1.26 57.5 37.1)" clip-rule="evenodd" fill="none" stroke="#fff" stroke-linejoin="round" stroke-miterlimit="2" stroke-width="3.55"><g transform="matrix(.281 0 0 .281 -58.1 -55.8)"><path d="m340 227c-9.49-0.0386-18.9 1.61-27.8 4.87-15.8 5.55-28.8 15.5-39 29.9-9.74 13.9-14.6 29.5-14.6 46.6v305c0 22.3 7.9 41.5 23.7 57.8 16.2 15.8 35.5 23.7 57.8 23.7 22.7 0 42-7.88 57.8-23.6 16.2-16.2 24.3-35.5 24.3-57.8v-55.4c0.173-12 12.5-8.85 18.8 0 11.7 20.3 36.5 37.7 65.4 37.6v0.0169c28.9-0.121 52.9-14.4 65.4-37.6 4.74-5.59 18.1-15.1 19.5 0v55.4c0 22.3 7.88 41.5 23.6 57.8 16.3 15.8 35.5 23.7 57.8 23.7 22.7 0 42-7.88 57.8-23.6 16.2-16.2 24.3-35.5 24.3-57.8v-305c0-17.2-5.1-32.7-15.3-46.6-9.76-14.4-22.5-24.4-38.3-29.9-9.28-3.26-18.6-4.87-27.8-4.87-25.1 0-46.2 9.74-63.3 29.2l-82.6 96.7c-1.85 1.4-8 12-21.1 12-13 0-18.5-10.6-20.3-12l-83.3-96.7c-16.7-19.5-37.6-29.2-62.6-29.2zm515 8e-3c-19.5 0-36.2 6.96-50.1 20.9-13.5 13.5-20.2 29.9-20.2 49.4s6.72 36.2 20.2 50.1c13.9 13.5 30.6 20.2 50.1 20.2 19.5 0 36.2-6.73 50.1-20.2 13.9-13.9 20.9-30.6 20.9-50.1s-6.95-36-20.9-49.4c-13.9-13.9-30.6-20.9-50.1-20.9zm0.687 154c-19.5 0-36.2 6.96-50.1 20.9-13.9 13.9-20.9 30.6-20.9 50.1v172c0 19.5 6.95 36.2 20.9 50.1 13.9 13.5 30.6 20.2 50.1 20.2 19.5 0 36-6.72 49.4-20.2 13.9-13.9 20.9-30.6 20.9-50.1v-172c0-19.5-6.95-36.2-20.9-50.1-13.5-13.9-29.9-20.9-49.4-20.9z" fill="none" stroke="#f7fde9" stroke-width="3.55"/></g><g transform="matrix(.281 0 0 .281 -58.1 -55.8)"><path d="m340 227c-9.49-0.0386-18.9 1.61-27.8 4.87-15.8 5.55-28.8 15.5-39 29.9-9.74 13.9-14.6 29.5-14.6 46.6v305c0 22.3 7.9 41.5 23.7 57.8 16.2 15.8 35.5 23.7 57.8 23.7 22.7 0 42-7.88 57.8-23.6 16.2-16.2 24.3-35.5 24.3-57.8v-55.4c0.173-12 12.5-8.85 18.8 0 11.7 20.3 36.5 37.7 65.4 37.6v0.0169c28.9-0.121 52.9-14.4 65.4-37.6 4.74-5.59 18.1-15.1 19.5 0v55.4c0 22.3 7.88 41.5 23.6 57.8 16.3 15.8 35.5 23.7 57.8 23.7 22.7 0 42-7.88 57.8-23.6 16.2-16.2 24.3-35.5 24.3-57.8v-305c0-17.2-5.1-32.7-15.3-46.6-9.76-14.4-22.5-24.4-38.3-29.9-9.28-3.26-18.6-4.87-27.8-4.87-25.1 0-46.2 9.74-63.3 29.2l-82.6 96.7c-1.85 1.4-8 12-21.1 12-13 0-18.5-10.6-20.3-12l-83.3-96.7c-16.7-19.5-37.6-29.2-62.6-29.2zm515 8e-3c-19.5 0-36.2 6.96-50.1 20.9-13.5 13.5-20.2 29.9-20.2 49.4s6.72 36.2 20.2 50.1c13.9 13.5 30.6 20.2 50.1 20.2 19.5 0 36.2-6.73 50.1-20.2 13.9-13.9 20.9-30.6 20.9-50.1s-6.95-36-20.9-49.4c-13.9-13.9-30.6-20.9-50.1-20.9zm0.687 154c-19.5 0-36.2 6.96-50.1 20.9-13.9 13.9-20.9 30.6-20.9 50.1v172c0 19.5 6.95 36.2 20.9 50.1 13.9 13.5 30.6 20.2 50.1 20.2 19.5 0 36-6.72 49.4-20.2 13.9-13.9 20.9-30.6 20.9-50.1v-172c0-19.5-6.95-36.2-20.9-50.1-13.5-13.9-29.9-20.9-49.4-20.9z" fill="#b4e900" fill-opacity=".2" filter="url(#filter6)" stroke="#b4e900" stroke-width="10.7"/></g></g></svg>
