<svg width="172" height="128" version="1.1" viewBox="0 0 86 64" xmlns="http://www.w3.org/2000/svg" xmlns:xlink="http://www.w3.org/1999/xlink"><desc>Created with Sketch.</desc><defs><linearGradient id="linearGradient55" x1="28.6" x2="19.7" y1="24.2" y2="40.2" gradientTransform="translate(9.28 -.771)" gradientUnits="userSpaceOnUse"><stop stop-color="#f11f4b" offset="0"/><stop stop-color="#c935b6" offset="1"/></linearGradient><linearGradient id="linearGradient60" x1="24" x2="34" y1="35.4" y2="42.7" gradientTransform="translate(9.28 -.771)" gradientUnits="userSpaceOnUse"><stop stop-color="#fe00dd" offset="0"/><stop stop-color="#00c3f7" offset="1"/></linearGradient><linearGradient id="linearGradient273" x1="37.9" x2="29" y1="23.5" y2="39.5" gradientUnits="userSpaceOnUse"><stop stop-color="#fe1244" stop-opacity=".3" offset="0"/><stop stop-color="#fe00dd" stop-opacity=".3" offset="1"/></linearGradient><linearGradient id="linearGradient18" x1="33.3" x2="43.3" y1="34.6" y2="42" gradientUnits="userSpaceOnUse"><stop stop-color="#fe00dc" stop-opacity=".3" offset="0"/><stop stop-color="#00c3f7" stop-opacity=".3" offset="1"/></linearGradient><linearGradient id="linearGradient21" x1="42.7" x2="48.9" y1="45.5" y2="35.9" gradientUnits="userSpaceOnUse"><stop stop-color="#18c5f7" stop-opacity=".3" offset="0"/><stop stop-color="#02ff4b" stop-opacity=".3" offset="1"/></linearGradient><linearGradient id="linearGradient25" x1="42.7" x2="48.9" y1="45.5" y2="35.9" gradientUnits="userSpaceOnUse"><stop stop-color="#00c0f8" offset="0"/><stop stop-color="#02ff4c" offset="1"/></linearGradient><linearGradient id="linearGradient285" x1="65.7" x2="52.3" y1="36" y2="19.9" gradientUnits="userSpaceOnUse"><stop stop-color="#10dc49" offset="0"/><stop stop-color="#ff8714" offset="1"/></linearGradient><linearGradient id="linearGradient287" x1="65.7" x2="52.3" y1="36" y2="19.9" gradientUnits="userSpaceOnUse"><stop stop-color="#10dc49" stop-opacity=".3" offset="0"/><stop stop-color="#ff8714" stop-opacity=".3" offset="1"/></linearGradient><linearGradient id="linearGradient293" x1="52.4" x2="35.2" y1="11" y2="19.4" gradientUnits="userSpaceOnUse"><stop stop-color="#ff8714" offset="0"/><stop stop-color="#f11f4b" offset="1"/></linearGradient><linearGradient id="linearGradient295" x1="52.4" x2="35.2" y1="11" y2="19.4" gradientUnits="userSpaceOnUse"><stop stop-color="#ff8714" stop-opacity=".3" offset="0"/><stop stop-color="#f11f4b" stop-opacity=".3" offset="1"/></linearGradient><filter id="filter346" x="-.163" y="-.163" width="1.33" height="1.33" color-interpolation-filters="sRGB"><feGaussianBlur stdDeviation="2.8165152"/></filter></defs><g><rect x="47.7" y="-6.72" width="5.37" height="5.52" ry="1" fill="#ff8714"/><rect x="42.3" y="-6.72" width="5.37" height="5.52" ry="1" fill="#10dc49"/><rect x="36.9" y="-6.72" width="5.37" height="5.52" ry="1" fill="#00c3f7"/><rect x="26.2" y="-6.72" width="5.37" height="5.52" ry="1" fill="#f11f4b"/><rect x="31.6" y="-6.72" width="5.37" height="5.52" ry="1" fill="#c935b6"/></g><g filter="url(#filter346)" stroke-linecap="round" stroke-linejoin="round" style="mix-blend-mode:normal"><path d="m48.9 35.9c2.25-1.18 3.66-3.59 3.18-7.05l0.283-17.8s6.92 2.76 10.9 10.2c3.98 7.43 2.34 14.8 2.34 14.8z" fill="url(#linearGradient287)" stroke="url(#linearGradient285)" stroke-miterlimit="0" stroke-width="1.5"/><path d="m52.1 28.8c-0.884-5.05-3.81-5.93-8.18-5.96l-17.4-6.91s3.93-4.67 11.7-6.44c7.75-1.77 14.2 1.51 14.2 1.51z" fill="url(#linearGradient295)" stroke="url(#linearGradient293)" stroke-miterlimit="0" stroke-width="1.5"/><path transform="matrix(1.43 0 0 1.43 -19.1 -14.2)" d="m29 39.5s-2.68-5.53-1.29-10.8 4.16-7.62 4.16-7.62l12.2 4.83s-4.92-0.0242-5.86 1.78c-0.314 0.734-0.731 2.24-0.731 2.24z" fill="url(#linearGradient273)" stroke="url(#linearGradient55)" stroke-width="1.05" style="mix-blend-mode:normal;paint-order:stroke fill markers"/><path transform="matrix(1.43 0 0 1.43 -19.1 -14.2)" d="m40.1 35.9 6.42 12.1s-5.17 1.26-10.4-1.4-7.14-7.16-7.14-7.16l8.44-9.56c-0.649 2.79-0.301 8.7 1.04 9.69 0.339-0.527 0.786-2.86 1.65-3.64z" fill="url(#linearGradient18)" stroke="url(#linearGradient60)" stroke-width="1.05" style="mix-blend-mode:normal;paint-order:stroke fill markers"/><path d="m60.1 47.4c-5.04 5.75-12.5 7.12-12.5 7.12l-9.19-17.3s1.26-1.11 2.53-0.806c4.94 1.3 6.86-0.0668 8.06-0.604 4.84 0.0377 16.7 0.13 16.7 0.13s-0.548 5.68-5.59 11.4z" fill="url(#linearGradient21)" stroke="url(#linearGradient25)" stroke-miterlimit="0" stroke-width="1.5"/></g><g fill="none" stroke="#fff" stroke-linejoin="round" stroke-width=".3"><g style="mix-blend-mode:normal"><path d="m44 22.9-17.4-6.91" style="paint-order:stroke fill markers"/><path d="m34.5 28.6-12.1 13.7" style="paint-order:stroke fill markers"/><path d="m38.4 37.3 9.19 17.3" style="paint-order:stroke fill markers"/><path d="m48.9 35.9 16.7 0.13" style="paint-order:stroke fill markers"/><path d="m52.1 28.8 0.283-17.8" style="paint-order:stroke fill markers"/></g><path d="m45.1 22.9c1.78 0.106 6.84 0.141 7.1 6.89 0.26 6.74-6.83 7.96-10.7 6.84-5.17-1.5-4.67 7.12-5.75 5.72-1.67-2.16-2.71-11.9-0.201-16.9 1.23-2.47 7.76-2.62 9.54-2.52z" stroke-linecap="round" stroke-miterlimit="0" style="mix-blend-mode:normal;paint-order:normal"/><circle cx="43" cy="32" r="23" style="mix-blend-mode:normal;paint-order:normal"/></g><g display="none"><rect width="86" height="64" display="inline" fill="none" stroke="#f11f1f" stroke-linejoin="round" stroke-width=".5" style="mix-blend-mode:normal;paint-order:normal"/></g></svg>
